PathFileType	4	(X/Y/Z)	C:\Users\dbl\Desktop\LZH\BX\Trimmed_bx_y_10_1801.trc
DataRate	CameraRate	NumFrames	NumMarkers	Units	OrigDataRate	OrigDataStartFrame	OrigNumFrames
50.00	50.00	       4	43	mm	50.00	224	       357
Frame#	Time	Top.Head			R.Acromium			L.Acromium			Sternum			R.ASIS			L.ASIS			V.Sacral			R.Thigh.Upper			R.Thigh.Front			R.Thigh.Rear			R.Knee.Lat			R.Knee.Med			R.Shank.Upper			R.Shank.Front			R.Shank.Rear			R.Ankle.Lat			R.Midfoot.Lat			R.Toe.Lat			R.Toe.Tip			R.Toe.Med			R.Ankle.Med			R.Midfoot.Sup			R.Heel			L.Thigh.Upper			L.Thigh.Front			L.Thigh.Rear			L.Knee.Lat			L.Knee.Med			L.Shank.Upper			L.Shank.Front			L.Shank.Rear			L.Ankle.Lat			L.Midfoot.Lat			L.Toe.Lat			L.Toe.Tip			L.Toe.Med			L.Ankle.Med			L.Midfoot.Sup			L.Heel			origin1 front left			origin2 front right			origin 3 back right			origin 4 back leftt			
		X1	Y1	Z1	X2	Y2	Z2	X3	Y3	Z3	X4	Y4	Z4	X5	Y5	Z5	X6	Y6	Z6	X7	Y7	Z7	X8	Y8	Z8	X9	Y9	Z9	X10	Y10	Z10	X11	Y11	Z11	X12	Y12	Z12	X13	Y13	Z13	X14	Y14	Z14	X15	Y15	Z15	X16	Y16	Z16	X17	Y17	Z17	X18	Y18	Z18	X19	Y19	Z19	X20	Y20	Z20	X21	Y21	Z21	X22	Y22	Z22	X23	Y23	Z23	X24	Y24	Z24	X25	Y25	Z25	X26	Y26	Z26	X27	Y27	Z27	X28	Y28	Z28	X29	Y29	Z29	X30	Y30	Z30	X31	Y31	Z31	X32	Y32	Z32	X33	Y33	Z33	X34	Y34	Z34	X35	Y35	Z35	X36	Y36	Z36	X37	Y37	Z37	X38	Y38	Z38	X39	Y39	Z39	X40	Y40	Z40	X41	Y41	Z41	X42	Y42	Z42	X43	Y43	Z43	

224	4.460	-297.60928	271.86688	1214.89929	-335.47934	45.84715	1215.50635	-402.11487	439.00876	942.16101	-450.11292	284.00867	979.90033	-707.00806	191.08099	985.21820	-702.84711	409.03802	833.86560	-966.59412	257.35886	775.03809	-757.54785	79.67355	698.11230	-701.61560	136.14436	714.80017	-635.45367	6.10566	657.89429	-539.87946	41.43696	541.02045	-501.82886	150.94473	529.88470	-556.78284	46.93197	489.88162	-462.29150	90.49029	520.66479	-613.46783	67.17119	444.50830	-673.34552	145.84868	213.01186	-615.69574	80.54546	168.69946	-572.06726	52.19619	160.82910	-491.51578	90.78118	158.63390	-529.96027	143.18602	164.18655	-617.38531	217.94589	212.90399	-587.69751	189.64357	165.07846	-711.09387	220.48604	174.22295	-723.19067	455.11841	691.01819	-671.00555	387.34290	710.70996	-624.72968	467.97986	609.77881	-518.77295	452.36163	552.09973	-457.61462	340.05847	539.26990	-498.67487	448.51163	515.85779	-445.68481	398.42374	492.00635	-563.06329	442.87070	476.77850	-666.11853	412.97763	210.56114	-584.06073	465.53943	165.81085	-545.64972	474.90570	159.55655	-486.74832	428.09918	165.08908	-523.01678	384.49432	174.62656	-633.19897	321.96024	200.09346	-591.58270	345.64435	163.59526	-729.82751	340.93710	167.39488	-443.74802	448.00912	145.83867	-449.88422	75.48511	144.95648	-806.31348	82.71032	142.49522	-799.09015	458.26663	144.54044	
225	4.480	-297.79211	271.92633	1219.73877	-338.76483	46.24059	1219.91724	-403.10907	439.54681	947.83801	-451.20514	284.15622	983.19946	-704.64862	191.16058	986.00360	-701.99066	409.08752	837.70068	-965.53595	257.67142	778.56763	-756.75031	80.26112	699.84485	-700.68976	136.65262	716.42651	-636.02576	6.83883	659.56268	-539.60083	42.58150	541.43829	-501.48853	152.48589	530.33875	-556.44104	48.46950	490.12598	-462.03857	91.63720	520.79089	-613.30255	67.97375	444.99277	-673.65930	145.97450	212.98868	-615.64886	80.60002	168.94743	-572.08563	52.06165	161.09106	-491.51038	90.72881	158.64349	-529.90863	143.21092	164.18332	-617.30322	218.33380	212.94580	-587.71490	189.62569	165.17145	-711.10577	220.47600	174.08983	-722.65045	455.81015	693.39252	-669.95813	388.48297	713.11499	-624.76288	468.23016	610.99072	-518.95544	452.65036	552.76123	-457.68710	340.37299	539.49744	-498.78662	448.57248	515.88251	-445.85413	398.81152	492.19501	-563.20868	443.02237	476.88367	-666.10297	412.93134	210.48508	-583.97681	465.49121	165.57912	-545.62115	474.98251	159.55495	-486.70828	428.16925	165.06436	-523.01996	384.44333	174.55058	-633.15198	321.92499	200.14662	-591.43719	345.74313	163.57358	-729.80017	340.90475	167.40022	-443.72983	447.97421	145.78777	-449.98557	75.52162	144.85384	-806.29504	82.66983	142.50627	-799.17157	458.19736	144.65643	
226	4.500	-298.06866	271.90277	1225.60327	-342.15976	46.62991	1224.45325	-404.04852	440.03729	954.54321	-452.32294	284.25732	986.73987	-702.26715	191.20166	986.82434	-701.08759	409.10950	841.66650	-964.14709	257.88055	782.75549	-755.61816	80.74223	701.87738	-699.43066	137.03778	718.35657	-636.59430	7.64294	661.26038	-539.12598	43.89839	541.76025	-500.97614	154.09869	530.66180	-555.98083	50.13877	490.37390	-461.59915	92.98286	520.82611	-612.98877	68.88022	445.46707	-673.91760	146.09366	212.96301	-615.56360	80.57163	169.34619	-572.07776	52.01391	161.21233	-491.49823	90.69493	158.64394	-529.85822	143.26781	164.17360	-617.25800	218.57034	213.12645	-587.75482	189.58665	165.34537	-711.07672	220.52817	173.94304	-722.06958	456.29547	696.01410	-668.68427	389.60724	715.87830	-624.85175	468.39597	612.22528	-519.03619	452.65051	553.30261	-457.65720	340.71918	539.72504	-498.81418	448.69540	515.98792	-445.82242	399.22739	492.29431	-563.36041	443.21912	477.04160	-666.08081	412.86868	210.41272	-583.87207	465.43317	165.32832	-545.65143	475.01743	159.49182	-486.68097	428.24292	165.05672	-523.05518	384.36380	174.47108	-633.06354	321.83923	200.28120	-591.23132	345.87109	163.46573	-729.79010	340.82272	167.38799	-443.71463	447.99796	145.76971	-450.12408	75.45847	144.76845	-806.28033	82.63627	142.51700	-799.22437	458.21304	144.65627	
227	4.520	-298.55420	271.80933	1232.51416	-345.66232	47.01431	1229.11035	-405.00906	440.55676	962.27979	-453.46558	284.31039	990.52246	-699.86652	191.20337	987.67987	-700.13696	409.10352	845.75745	-962.48578	258.04251	787.58032	-754.20007	81.15262	704.26178	-697.83026	137.34641	720.67499	-637.15723	8.51849	662.98450	-538.49255	45.28689	542.09119	-500.38348	155.60739	530.86768	-555.45667	51.78394	490.69720	-461.02353	94.42559	520.81525	-612.59949	69.87408	445.93945	-674.03595	146.20204	212.98061	-615.40668	80.49825	169.77928	-572.05133	52.00574	161.22824	-491.47891	90.68031	158.62177	-529.80792	143.40959	164.10126	-617.24677	218.66470	213.37999	-587.81165	189.58148	165.49307	-711.01819	220.62152	173.83649	-721.38208	456.55685	698.81042	-667.18005	390.69284	718.98364	-624.89917	468.46878	613.55530	-519.04187	452.39893	553.76166	-457.54651	341.04630	539.95496	-498.86557	448.85025	516.23749	-445.65094	399.55460	492.26028	-563.49921	443.37888	477.24530	-666.05096	412.77609	210.36743	-583.80133	465.40640	165.16476	-545.68286	475.06171	159.39999	-486.67337	428.29147	165.06213	-523.12518	384.29581	174.43854	-632.93671	321.76651	200.38954	-591.01703	345.99854	163.30542	-729.80151	340.69986	167.35605	-443.70288	448.08282	145.80386	-450.25406	75.36457	144.73236	-806.27124	82.62614	142.52608	-799.16882	458.40851	144.49382	
